<svg xmlns="http://www.w3.org/2000/svg" width="115.485" height="122" preserveAspectRatio="xMidYMid" style="background:#051103" viewBox="192.258 14 115.485 122"><defs><linearGradient id="editing-glowing-gradient" x1=".915" x2=".085" y1=".78" y2=".22"><stop offset="0" stop-color="#67ff43"/><stop offset="1" stop-color="#90ffff"/></linearGradient><filter id="editing-glowing" width="300%" height="300%" x="-100%" y="-100%"><feGaussianBlur in="SourceGraphic" result="blur" stdDeviation="30"/><feMerge><feMergeNode in="blur"/><feMergeNode in="SourceGraphic"/></feMerge></filter></defs><g filter="url(#editing-glowing)"><path fill="url(#editing-glowing-gradient)" d="M6.21-31.17q-2.18-1.66-2.18-5.21 0-3.56 2.34-5.41 2.33-1.86 6.37-1.86 2.56 0 8.64.9l4.35.64q2.17.25 4.45.25 2.27 0 3.8-.96 2.31 2.05 2.31 5 0 2.94-2.63 5.05-2.68 2.24-6.14 2.24-1.66 0-4.35-.45-3.14 9.86-3.14 16.71 0 6.85 3.46 10.43-1.6 2.88-3.97 4T13.6 1.28q-3.55 0-5.76-1.95T5.63-6.66q0-4.67 2.56-12.35 2.56-7.61 6.4-13.44-1.85-.19-3.77-.19-3.97 0-4.61 1.47Zm33.15 0q-2.18-1.66-2.18-5.21 0-3.56 2.34-5.41 2.34-1.86 6.37-1.86 2.56 0 8.64.9l4.35.64q2.18.25 4.45.25t3.81-.96q2.3 2.05 2.3 5 0 2.94-2.62 5.05-2.69 2.24-6.15 2.24-1.66 0-4.35-.45-3.14 9.86-3.14 16.71 0 6.85 3.46 10.43-1.6 2.88-3.97 4t-5.92 1.12q-3.55 0-5.76-1.95t-2.21-5.99q0-4.67 2.56-12.35 2.56-7.61 6.4-13.44-1.85-.19-3.77-.19-3.97 0-4.61 1.47Z" transform="translate(215.212 97.465)"/></g><style></style></svg>